<?xml version="1.0" encoding="iso-8859-1"?>
<!-- Generator: Adobe Illustrator 19.0.0, SVG Export Plug-In . SVG Version: 6.00 Build 0)  -->
<svg version="1.1" id="Layer_1" xmlns="http://www.w3.org/2000/svg" xmlns:xlink="http://www.w3.org/1999/xlink" x="0px" y="0px"
	 viewBox="0 0 512 512" style="enable-background:new 0 0 512 512;" xml:space="preserve">
<g>
	<g>
		<path d="M384,0H128c-8.848,0-16,7.168-16,16v480c0,8.848,7.152,16,16,16h256c8.848,0,16-7.152,16-16V16C400,7.168,392.848,0,384,0
			z M368,480H144V32h224V480z"/>
	</g>
</g>
<g>
	<g>
		<path d="M224,80h-16c-8.848,0-16,7.168-16,16v48c0,8.832,7.152,16,16,16h16c8.848,0,16-7.168,16-16V96
			C240,87.168,232.848,80,224,80z"/>
	</g>
</g>
<g>
	<g>
		<path d="M304,80h-16c-8.848,0-16,7.168-16,16v48c0,8.832,7.152,16,16,16h16c8.848,0,16-7.168,16-16V96
			C320,87.168,312.848,80,304,80z"/>
	</g>
</g>
<g>
	<g>
		<path d="M224,176h-16c-8.848,0-16,7.168-16,16v48c0,8.832,7.152,16,16,16h16c8.848,0,16-7.168,16-16v-48
			C240,183.168,232.848,176,224,176z"/>
	</g>
</g>
<g>
	<g>
		<path d="M304,176h-16c-8.848,0-16,7.168-16,16v48c0,8.832,7.152,16,16,16h16c8.848,0,16-7.168,16-16v-48
			C320,183.168,312.848,176,304,176z"/>
	</g>
</g>
<g>
	<g>
		<path d="M224,272h-16c-8.848,0-16,7.152-16,16v48c0,8.848,7.152,16,16,16h16c8.848,0,16-7.152,16-16v-48
			C240,279.152,232.848,272,224,272z"/>
	</g>
</g>
<g>
	<g>
		<path d="M304,272h-16c-8.848,0-16,7.152-16,16v48c0,8.848,7.152,16,16,16h16c8.848,0,16-7.152,16-16v-48
			C320,279.152,312.848,272,304,272z"/>
	</g>
</g>
<g>
	<g>
		<path d="M224,368h-16c-8.848,0-16,7.152-16,16v48c0,8.848,7.152,16,16,16h16c8.848,0,16-7.152,16-16v-48
			C240,375.152,232.848,368,224,368z"/>
	</g>
</g>
<g>
	<g>
		<path d="M304,368h-16c-8.848,0-16,7.152-16,16v48c0,8.848,7.152,16,16,16h16c8.848,0,16-7.152,16-16v-48
			C320,375.152,312.848,368,304,368z"/>
	</g>
</g>
<g>
</g>
<g>
</g>
<g>
</g>
<g>
</g>
<g>
</g>
<g>
</g>
<g>
</g>
<g>
</g>
<g>
</g>
<g>
</g>
<g>
</g>
<g>
</g>
<g>
</g>
<g>
</g>
<g>
</g>
</svg>
